<?xml version="1.0" encoding="UTF-8"?>
<svg width="25px" height="32px" viewBox="0 0 25 32" version="1.1" xmlns="http://www.w3.org/2000/svg" xmlns:xlink="http://www.w3.org/1999/xlink">
    <!-- Generator: Sketch 49.3 (51167) - http://www.bohemiancoding.com/sketch -->
    <title>Pins</title>
    <desc>Created with Sketch.</desc>
    <defs></defs>
    <g id="Page-1" stroke="none" stroke-width="1" fill="none" fill-rule="evenodd">
        <g id="Components" transform="translate(-770.000000, -928.000000)" fill="#282828">
            <g id="Social" transform="translate(100.000000, 849.000000)">
                <g id="Pins" transform="translate(670.000000, 79.000000)">
                    <g id="Big-Pin">
                        <path d="M12.5,0 C5.596,0 0,5.535 0,12.363 C0,21.79 10.117,32 12.541,32 C14.965,32 25,21.79 25,12.363 C25,5.535 19.404,0 12.5,0 L12.5,0 Z M12.5,18.093 C9.326,18.093 6.753,15.549 6.753,12.409 C6.753,9.27 9.326,6.725 12.5,6.725 C15.674,6.725 18.247,9.27 18.247,12.409 C18.247,15.549 15.674,18.093 12.5,18.093 L12.5,18.093 Z"></path>
                    </g>
                </g>
            </g>
        </g>
    </g>
</svg>